<svg width="1440" height="2106" viewBox="0 0 1440 2106" fill="none" xmlns="http://www.w3.org/2000/svg">
<path d="M892 780L922.91 797.628V909.945L892 899.872V780Z" fill="#E3E4E5"/>
<path d="M532.91 780L502 797.628V909.945L532.91 899.872V780Z" fill="#E3E4E5"/>
<path d="M1440 1085.22C1440 1084.8 1439.74 1084.43 1439.35 1084.28L894.352 879.508C893.698 879.262 893 879.746 893 880.444V1486.44C893 1486.97 893.417 1487.41 893.948 1487.44L1438.95 1515.94C1439.52 1515.97 1440 1515.52 1440 1514.95V1085.22Z" fill="white"/>
<path d="M-2 1085.22C-2 1084.8 -1.74171 1084.43 -1.35172 1084.28L543.648 879.508C544.302 879.262 545 879.746 545 880.444V1486.44C545 1486.97 544.583 1487.41 544.052 1487.44L-0.947779 1515.94C-1.5198 1515.97 -2 1515.52 -2 1514.95V1085.22Z" fill="white"/>
<path d="M583.5 2106C555.886 2106 533.5 2083.61 533.5 2056L533.5 319.663C533.5 220.557 613.841 140.216 712.947 140.216C812.054 140.216 892.395 220.557 892.395 319.663V2056C892.395 2083.61 870.009 2106 842.395 2106H583.5Z" fill="white"/>
<ellipse cx="712.948" cy="352.144" rx="179.447" ry="352.144" fill="white"/>
<path d="M615.006 186.835H598.715L615.006 131.722L633.74 151.052L615.006 186.835Z" fill="#E3E4E5"/>
<path d="M710.715 117.327L637.813 147.351L617.042 127.198L710.715 84.8347V117.327Z" fill="#E3E4E5"/>
<path d="M812.424 186.835H828.715L812.424 131.722L793.69 151.052L812.424 186.835Z" fill="#E3E4E5"/>
<path d="M716.715 117.327L789.617 147.351L810.388 127.198L716.715 84.8347V117.327Z" fill="#E3E4E5"/>
</svg>
