<svg width="1439" height="1897" viewBox="0 0 1439 1897" fill="none" xmlns="http://www.w3.org/2000/svg">
<path d="M892 780L922.91 797.628V909.945L892 899.872V780Z" fill="#E3E4E5"/>
<path d="M532.91 780L502 797.628V909.945L532.91 899.872V780Z" fill="#E3E4E5"/>
<path d="M1439 788.86C1439 788.427 1438.72 788.042 1438.31 787.909L893.308 611.424C892.662 611.214 892 611.696 892 612.375V1134.38C892 1134.92 892.421 1135.36 892.955 1135.38L1437.95 1159.95C1438.52 1159.98 1439 1159.52 1439 1158.95V788.86Z" fill="white"/>
<path d="M0 788.86C0 788.427 0.279422 788.042 0.691924 787.909L545.692 611.424C546.338 611.214 547 611.696 547 612.375V1134.38C547 1134.92 546.579 1135.36 546.045 1135.38L1.04502 1159.95C0.475631 1159.98 0 1159.52 0 1158.95V788.86Z" fill="white"/>
<path d="M583.5 1897C555.886 1897 533.5 1874.61 533.5 1847L533.5 305.748C533.5 206.642 613.841 126.301 712.947 126.301V126.301C812.054 126.301 892.395 206.642 892.395 305.748V1847C892.395 1874.61 870.009 1897 842.395 1897H583.5Z" fill="white"/>
<ellipse cx="712.448" cy="352.144" rx="179.447" ry="352.144" fill="white"/>
<path d="M615.006 186.835H598.715L615.006 131.722L633.74 151.052L615.006 186.835Z" fill="#E3E4E5"/>
<path d="M710.715 117.327L637.813 147.351L617.042 127.198L710.715 84.8347V117.327Z" fill="#E3E4E5"/>
<path d="M812.424 186.835H828.715L812.424 131.722L793.69 151.052L812.424 186.835Z" fill="#E3E4E5"/>
<path d="M716.715 117.327L789.617 147.351L810.388 127.198L716.715 84.8347V117.327Z" fill="#E3E4E5"/>
</svg>
