<svg width="1411" height="2106" viewBox="0 0 1411 2106" fill="none" xmlns="http://www.w3.org/2000/svg">
<path d="M906 780L936.91 797.628V909.945L906 899.872V780Z" fill="#E3E4E5"/>
<path d="M546.91 780L516 797.628V909.945L546.91 899.872V780Z" fill="#E3E4E5"/>
<path d="M1454 1085.22C1454 1084.8 1453.74 1084.43 1453.35 1084.28L908.352 879.508C907.698 879.262 907 879.746 907 880.444V1486.44C907 1486.97 907.417 1487.41 907.948 1487.44L1452.95 1515.95C1453.52 1515.97 1454 1515.52 1454 1514.95V1085.22Z" fill="white"/>
<path d="M0 1085.22C0 1084.8 0.258286 1084.43 0.648275 1084.28L545.648 879.508C546.302 879.262 547 879.746 547 880.444V1486.44C547 1486.97 546.583 1487.41 546.052 1487.44L1.05222 1515.95C0.480196 1515.97 0 1515.52 0 1514.95V1085.22Z" fill="white"/>
<path d="M597.5 2106C569.886 2106 547.5 2083.61 547.5 2056L547.5 319.663C547.5 220.557 627.841 140.216 726.947 140.216C826.054 140.216 906.395 220.557 906.395 319.663V2056C906.395 2083.61 884.009 2106 856.395 2106H597.5Z" fill="white"/>
<ellipse cx="726.948" cy="352.144" rx="179.447" ry="352.144" fill="white"/>
<path d="M629.006 186.835H612.715L629.006 131.722L647.74 151.052L629.006 186.835Z" fill="#E3E4E5"/>
<path d="M724.715 117.327L651.813 147.351L631.042 127.198L724.715 84.8347V117.327Z" fill="#E3E4E5"/>
<path d="M826.424 186.835H842.715L826.424 131.722L807.69 151.052L826.424 186.835Z" fill="#E3E4E5"/>
<path d="M730.715 117.327L803.617 147.351L824.388 127.198L730.715 84.8347V117.327Z" fill="#E3E4E5"/>
</svg>
